<?xml version="1.0" encoding="utf-8"?>
<!-- Generator: Adobe Illustrator 24.2.1, SVG Export Plug-In . SVG Version: 6.00 Build 0)  -->
<svg version="1.1" id="Layer_1" xmlns="http://www.w3.org/2000/svg" xmlns:xlink="http://www.w3.org/1999/xlink" x="0px" y="0px"
	 viewBox="0 0 93.6 107.3" style="enable-background:new 0 0 93.6 107.3;" xml:space="preserve">
<g>
	<g>
		<g>
			<path d="M65.8,60.4c0.5-10.3-0.2-20.7-2.1-30.8c-0.9-5-2.1-10-3.6-14.9c-0.7-2.4-1.5-4.7-2.4-7.1c-0.8-2.1-1.5-4.4-3.3-5.9
				C52.5,0,50,0,47.5,0c-2.7,0-5.4,0-8.1,0c-2.7,0-5.4,0-8.1,0c-2.4,0-5.5-0.5-7.5,1.3C22,3,22.1,5.7,22,8.1
				c-0.1,2.6-0.2,5.2-0.2,7.7c0,5.2,0.3,10.3,0.8,15.4c1.2,11.6,3.8,23,7.6,33.9c0.6-1,1.2-2.1,1.7-3.1c-4.6,1.7-9.4,0.9-14.1-0.1
				c-5.1-1.1-10.1-2.5-15.4-2.5c-1.9,0-3.1,2.1-2.2,3.8c8.1,13.9,19.4,25.8,32.9,34.6c3.3,2.2,6.7,4.1,10.3,5.9
				c1.8,0.9,3.6,1.7,5.4,2.5c2.3,1,4.9,1.8,7.1,0.1c1.7-1.3,2.7-3.4,3.9-5.2c1.2-1.8,2.5-3.6,3.8-5.4c2.6-3.5,5.3-7,8.2-10.3
				c6.5-7.6,13.5-14.6,21.1-21c1.2-1,0.8-3.2-0.5-3.9c-8.4-4.3-17.9-2.3-26.6,0c-3.1,0.8-1.8,5.6,1.3,4.8c7.2-1.9,15.7-4.2,22.7-0.5
				c-0.2-1.3-0.3-2.6-0.5-3.9C76.4,71.9,65,84.6,55.5,98.6c-0.6,0.8-1.1,1.7-1.7,2.6c-0.2,0.3-0.4,0.6-0.6,0.9
				c-0.1,0.1-0.2,0.2-0.3,0.3c0,0,0.1,0-0.1,0c-0.8,0-1.8-0.6-2.5-0.9c-0.9-0.4-1.8-0.8-2.7-1.2c-3.4-1.6-6.7-3.4-9.9-5.4
				c-6.4-4-12.3-8.7-17.7-14c-6-6-11.2-12.7-15.4-20.1c-0.7,1.3-1.4,2.5-2.2,3.8c10.4-0.1,20.5,6.1,30.8,2.4
				c1.2-0.4,2.2-1.7,1.7-3.1C28.8,46,26,27,27,8.1c0-0.9,0-1.8,0.2-2.7c0.2-0.8,0.2-0.3-0.1-0.2c0.6-0.1,1.1-0.1,1.7-0.1
				c2.4,0,4.9,0,7.3,0c2.5,0,5,0,7.6,0c2.1,0,4.5-0.3,6.6,0c1.6,0.3,2.1,2.1,2.6,3.5c0.8,2.2,1.6,4.4,2.3,6.6
				c1.4,4.5,2.6,9.1,3.5,13.8c2.1,10.4,2.8,21,2.3,31.5C60.7,63.7,65.7,63.6,65.8,60.4L65.8,60.4z"/>
		</g>
	</g>
	<g>
		<g>
			<path d="M61.8,65.8c2.4,0.7,5,0.4,7.2-0.8c0.5-0.3,1-0.9,1.1-1.5c0.2-0.6,0.1-1.4-0.3-1.9c-0.3-0.5-0.9-1-1.5-1.1
				c-0.7-0.2-1.3-0.1-1.9,0.3c-0.2,0.1-0.3,0.2-0.5,0.2c0.2-0.1,0.4-0.2,0.6-0.3c-0.6,0.2-1.2,0.4-1.8,0.5c0.2,0,0.4-0.1,0.7-0.1
				c-0.6,0.1-1.3,0.1-1.9,0c0.2,0,0.4,0.1,0.7,0.1c-0.4,0-0.7-0.1-1.1-0.2c-0.6-0.2-1.4-0.1-1.9,0.3c-0.5,0.3-1,0.9-1.1,1.5
				c-0.1,0.6-0.1,1.4,0.3,1.9C60.7,65.2,61.2,65.6,61.8,65.8L61.8,65.8z"/>
		</g>
	</g>
</g>
</svg>
