<?xml version="1.0" encoding="utf-8"?>
<!-- Generator: Adobe Illustrator 24.2.1, SVG Export Plug-In . SVG Version: 6.00 Build 0)  -->
<svg version="1.1" id="Layer_1" xmlns="http://www.w3.org/2000/svg" xmlns:xlink="http://www.w3.org/1999/xlink" x="0px" y="0px"
	 viewBox="0 0 175.8 163.7" style="enable-background:new 0 0 175.8 163.7;" xml:space="preserve">
<style type="text/css">
	.st0{fill:#E3E0DD;}
</style>
<g>
	<g>
		<g>
			<g>
				<path d="M89.4,2.5c-17.9-5.3-37.8-0.7-52.7,10c-14.8,10.6-25.1,26.3-31,43.4c-6.5,18.7-7.8,39.8-1.1,58.7
					c5.8,16.4,17.4,31,33.1,38.9c8.8,4.4,18.5,6.8,28.2,8.2c10.2,1.4,20.6,2.1,30.9,1.6c9.6-0.5,19.3-2.2,28.2-5.8
					c7.3-3,14-7.1,20.1-12.1c12-9.9,21.1-23.4,26.1-38.1c5.1-14.8,5.8-31.1,1.3-46.1c-4.5-15.1-13.9-28.7-25.9-38.9
					C134.4,11.9,119.4,5,103.5,2.9C99.7,2.4,95.9,2.2,92,2.3c-3.2,0.1-3.2,5.1,0,5c15-0.5,29.7,4,42.3,12c12.6,8,23,19.4,29.5,32.8
					c6.4,13.3,8.3,28.4,5.5,42.8c-2.7,14.4-9.5,27.9-19.4,38.8c-10.2,11.3-23.4,19.2-38.3,22.5c-9.8,2.1-19.8,2.4-29.8,1.9
					c-9.5-0.5-19-1.5-28.1-4c-8.5-2.3-16.7-5.9-23.6-11.4c-6.3-5.1-11.6-11.4-15.6-18.4C5.5,108.6,3.4,89.8,6.6,72
					c3.2-17.3,10.9-34.2,23.2-46.9c12-12.4,28.6-20.4,46-19.8c4.2,0.1,8.3,0.8,12.3,2C91.2,8.2,92.5,3.4,89.4,2.5L89.4,2.5z"/>
			</g>
		</g>
	</g>
	<g>
		<g>
			<path d="M98.8,10.7c-0.4,0-0.9,0-1.3-0.1C91,11.5,84.5,12.3,78,13.2c-0.4,0.1-0.8,0.3-1.3,0.4C71,16,65.2,18.5,59.3,20.9
				c-0.4,0.3-0.7,0.5-1.1,0.8c-4.9,3.8-9.8,7.6-14.8,11.4C39.7,38,35.9,43,32.1,47.9c-2.1,2.9-3.6,6.2-4.4,9.8
				c-4.7,11-3.7,7.7-5.3,19.7c-1.6,12.2-1.5,8.5,0.2,20.7c0,6.6,1.7,12.7,5,18.4c1.2,3.2,2.5,6.3,4,9.3c2.8,4.9,8.6,12.3,12.6,16.3
				c10.7-40.7,21.5-81.3,32.2-122c-0.5,0.1-1.1,0.2-1.6,0.2c6.5-0.9,12.9-1.7,19.4-2.6C91.4,18,88.7,18,86,17.6
				c6.5,0.9,12.9,1.7,19.4,2.6c-2.1-0.4-4.2-1-6.2-1.7c5.8,2.5,11.6,4.9,17.4,7.4c-2.5-1.1-4.8-2.4-7-4C98.2,15.3,86,12,72.8,11.9
				c-13.2,0-25.5,3.4-36.8,10C25,28.4,16.2,37.1,9.7,48.1c-6.6,11.4-9.9,23.7-10,36.8c0.1,1.7,0.3,3.3,0.4,5
				c0.9,6.5,1.7,12.9,2.6,19.4c2.3,9.5,6.6,17.8,13.1,24.8c3.2,5.5,7.6,9.8,13.1,13.1c7.1,6.5,15.3,10.8,24.8,13.1
				c12.8,2.9,26,2.9,38.8,0c17.7-4,34.4-18.4,43.6-33.5c0.3-0.5,0.6-0.9,0.8-1.4c-3.8,4.9-7.6,9.8-11.4,14.8
				c10.5-12.7,20.2-23.4,24.7-39.9c7.1-26.5-0.2-55.4-19.6-75C111.8,6,82.4-1.9,56.4,5.4C37.8,10.6,21.8,23,12,39.5
				C4.9,51.4,4.1,56.6,2.5,68.4C0.9,80.3,0.2,86.2,4,99.5c3.7,13,10.7,24.7,20.3,34.2C40.2,149.4,60,155.5,81.7,157
				c2.2,0.2,4.2,0.2,6.4,0c7.3-0.5,15.4-1.5,22.6-3.2c9.6-2.3,19.5-6.3,27.5-12.1c-36.6-21-73.2-42-109.8-63
				c0.2,2.8,0.5,5.6,0.7,8.4c-0.4,10.1,1.7,19.4,6.3,28.1c2.9,9.1,8,16.9,15.1,23.5c6.6,7.1,14.4,12.2,23.5,15.1
				c8.7,4.6,18.1,6.7,28.1,6.3c18.9-0.8,38.5-7,51.6-21.4c12.5-13.6,23-32.5,21.4-51.6c-0.2-2.8-0.5-5.6-0.7-8.4
				c0-13.2-3.4-25.5-10-36.8c-6.5-11-15.2-19.7-26.2-26.2c-11.4-6.6-23.7-9.9-36.8-10c-13.2,0-25.5,3.4-36.8,10
				C62.8,17,61,18,59,18.9c5.8-2.5,11.6-4.9,17.4-7.4c-2.5,1-5,1.7-7.7,2.1c6.5-0.9,12.9-1.7,19.4-2.6c-2.2,0.2-4.2,0.2-6.4,0
				c6.5,0.9,12.9,1.7,19.4,2.6c-1.6-0.3-3-0.6-4.5-1.2c5.8,2.5,11.6,4.9,17.4,7.4c-0.4-0.3-0.9-0.5-1.3-0.8
				c4.9,3.8,9.8,7.6,14.8,11.4c-0.3-0.4-0.7-0.7-1-1.1c3.8,4.9,7.6,9.8,11.4,14.8c-0.2-0.3-0.3-0.6-0.5-0.9
				c2.5,5.8,4.9,11.6,7.4,17.4c-0.1-0.3-0.2-0.7-0.2-1c0.9,6.5,1.7,12.9,2.6,19.4c0-0.3,0-0.7,0-1c-0.9,6.5-1.7,12.9-2.6,19.4
				c0.1-0.3,0.2-0.6,0.3-0.9c-2.5,5.8-4.9,11.6-7.4,17.4c0.2-0.3,0.4-0.5,0.5-0.8c-8.7,8.7-17.5,17.5-26.2,26.2
				c0.3-0.2,0.5-0.4,0.8-0.5c-5.8,2.5-11.6,4.9-17.4,7.4c0.4-0.1,0.8-0.1,1.2-0.2c-12.9,0-25.9,0-38.8,0c0.4,0.1,0.8,0.3,1.2,0.4
				c-10.7-6.3-21.5-12.5-32.2-18.8c0.3,0.3,0.7,0.5,1,0.8c-3.8-4.9-7.6-9.8-11.4-14.8c0.2,0.4,0.5,0.7,0.7,1.1
				c-2.5-5.8-4.9-11.6-7.4-17.4c0.1,0.4,0.2,0.8,0.3,1.3C8.9,92.2,8,85.7,7.2,79.2C7.1,79.8,7,80.3,7,80.8
				c0.9-6.5,1.7-12.9,2.6-19.4c-0.2,0.5-0.4,1-0.6,1.5c2.5-5.8,4.9-11.6,7.4-17.4c-0.3,0.5-0.6,0.9-0.9,1.4
				c3.8-4.9,7.6-9.8,11.4-14.8C21,38.9,15,45.1,10.2,53.1c45.3,12.3,90.7,24.6,136,36.8c-0.1-1.7-0.3-3.3-0.4-5
				c-36.6,21-73.2,42-109.8,63c2,1.4,4,2.6,6.3,3.6c7.3,3.4,14.9,7.2,22.8,9.1c7.7,1.8,16.3,2.8,24.2,3.2c8.6,0.4,17.5-1.8,25.9-3
				c12.4-3.5,23.1-9.7,32.2-18.8c9-9.1,15.3-19.8,18.8-32.2c6.9-25.1-0.4-52.6-18.8-71c-0.3-0.3-0.6-0.6-0.9-0.9
				c3.8,4.9,7.6,9.8,11.4,14.8c-0.2-0.4-0.4-0.8-0.6-1.2c3.3,12.3,6.6,24.6,10,36.8c-0.1-0.4-0.1-0.9-0.2-1.3
				c-0.9,6.5-1.7,12.9-2.6,19.4c0.1-0.4,0.2-0.9,0.3-1.3c-2.5,5.8-4.9,11.6-7.4,17.4c0.3-0.4,0.5-0.7,0.8-1.1
				c-8.7,8.7-17.5,17.5-26.2,26.2c0.4-0.3,0.7-0.5,1.1-0.8c-5.8,2.5-11.6,4.9-17.4,7.4c0.4-0.1,0.8-0.3,1.3-0.4
				c-6.5,0.9-12.9,1.7-19.4,2.6c0.4,0,0.9,0,1.3,0.1c10.1,0.4,19.4-1.7,28.1-6.3c9.1-2.9,16.9-8,23.5-15.1
				c7.1-6.6,12.2-14.4,15.1-23.5c4.6-8.7,6.7-18.1,6.3-28.1c-0.8-18.9-7-38.5-21.4-51.6c-4.9-3.8-9.8-7.6-14.8-11.4
				C124.2,14,112,10.7,98.8,10.7L98.8,10.7z"/>
		</g>
	</g>
</g>
<g>
	<g>
		<g>
			<g>
				<path class="st0" d="M89.3,13.2c-15.4-4.5-32.5-0.7-45.5,8.6C31,31,22.1,44.5,16.9,59.2c-5.7,16.1-6.8,34.4-1.1,50.7
					c5,14.2,14.9,26.8,28.4,33.7c7.6,3.9,15.9,6,24.3,7.2c8.8,1.2,17.7,1.9,26.5,1.4c8.3-0.4,16.7-1.8,24.5-4.9
					c6.4-2.6,12.2-6.1,17.5-10.4c10.5-8.5,18.4-20.2,22.8-32.9c4.4-12.8,5.1-26.9,1.3-40c-3.9-13.2-12-25-22.5-33.8
					c-10.6-8.9-23.6-14.9-37.4-16.7c-3.3-0.4-6.6-0.6-9.9-0.5c-3.2,0.1-3.2,5.1,0,5c12.8-0.4,25.4,3.4,36.2,10.3
					c10.8,6.8,19.7,16.6,25.2,28.1c5.5,11.4,7.1,24.3,4.7,36.7c-2.4,12.3-8.2,23.9-16.7,33.2c-8.8,9.7-20.1,16.4-32.9,19.2
					c-8.3,1.8-16.9,2-25.4,1.6c-8.1-0.4-16.2-1.3-24-3.4c-7.3-1.9-14.3-5-20.2-9.7c-5.5-4.4-10-9.8-13.5-15.9
					c-7.7-13.5-9.5-29.6-6.7-44.8c2.7-14.7,9.3-29.2,19.8-40c10.2-10.6,24.3-17.4,39.2-16.9c3.6,0.1,7.1,0.7,10.6,1.7
					C91,19,92.4,14.2,89.3,13.2L89.3,13.2z"/>
			</g>
		</g>
	</g>
	<g>
		<g>
			<path class="st0" d="M97.3,10.4c-4.9-0.3-15.7,1.3-20.5,2.5c-5,1.3-14.1,5.1-18.5,7.7c-4.3,2.5-12.2,8.6-15.7,12.1
				c-3.8,4.9-7.6,9.8-11.4,14.8c-2.1,2.9-3.5,6.1-4.3,9.7c-4.7,11.2-3.6,7.3-5.2,19.5C19.8,89,20,84.9,21.6,97.2
				c0,6.6,1.7,12.7,5,18.4c1.2,3.1,2.5,6.2,3.9,9.2c2.7,4.6,8.7,12.3,12.5,16.1c10.7-40.7,21.5-81.3,32.2-122
				c-0.5,0.1-1.1,0.2-1.6,0.2c6.5-0.9,12.9-1.7,19.4-2.6c-2.2,0.2-4.2,0.1-6.4-0.1c6.5,0.9,12.9,1.7,19.4,2.6
				c-2.1-0.4-4.1-0.9-6.2-1.7c5.8,2.5,11.6,4.9,17.4,7.4c-2-0.9-3.8-1.9-5.5-3.2c-11.4-6.6-23.7-9.9-36.8-10
				c-13.2,0-25.5,3.4-36.8,10c-11,6.5-19.7,15.2-26.2,26.2c-6.6,11.4-9.9,23.7-10,36.8c0.1,1.4,0.3,2.8,0.4,4.3
				c0.9,6.5,1.7,12.9,2.6,19.4c2.3,9.5,6.6,17.8,13.1,24.8c3.2,5.5,7.6,9.8,13.1,13.1c7.1,6.5,15.3,10.8,24.8,13.1
				c12.8,2.9,26,2.9,38.8,0c17.7-4,34.4-18.4,43.6-33.5c0.2-0.4,0.5-0.8,0.7-1.2c-3.8,4.9-7.6,9.8-11.4,14.8
				c10.2-12.3,18.8-21.8,23.3-37.6c5.9-20.5,3.4-42.5-7.5-60.9C126.2,11.9,91.6-2.5,59.1,6.1C33.7,12.8,12.9,33.3,5.8,58.7
				C2.1,72,2.8,85.4,5.6,98.6c2.5,11.6,10.7,25.9,19.4,34.2c10.6,10.1,23.8,18.6,38.3,21.4c24.5,4.7,51.9,3.1,73-12
				c-36.6-21-73.2-42-109.8-63c0.2,2.4,0.4,4.8,0.6,7.2c-0.4,10.1,1.7,19.4,6.3,28.1c2.9,9.1,8,16.9,15.1,23.5
				c6.6,7.1,14.4,12.2,23.5,15.1c8.7,4.6,18.1,6.7,28.1,6.3c18.9-0.8,38.5-7,51.6-21.4c12.5-13.6,23-32.5,21.4-51.6
				c-0.2-2.4-0.4-4.8-0.6-7.2c0-13.2-3.4-25.5-10-36.8c-6.5-11-15.2-19.7-26.2-26.2c-11.4-6.6-23.7-9.9-36.8-10
				c-13.2,0-25.5,3.4-36.8,10c-1.8,1.3-3.6,2.3-5.6,3.2c5.8-2.5,11.6-4.9,17.4-7.4c-1.6,0.5-3,1-4.7,1.3c6.5-0.9,12.9-1.7,19.4-2.6
				c-2.2,0.3-4.2,0.3-6.4,0.2c6.5,0.9,12.9,1.7,19.4,2.6c-1.5-0.2-2.7-0.5-4.1-1c5.8,2.5,11.6,4.9,17.4,7.4
				c-0.4-0.2-0.7-0.4-1.1-0.7c4.9,3.8,9.8,7.6,14.8,11.4c-0.3-0.3-0.6-0.6-0.9-0.9c3.8,4.9,7.6,9.8,11.4,14.8
				c-0.2-0.3-0.3-0.6-0.5-0.9c2.5,5.8,4.9,11.6,7.4,17.4c-0.1-0.4-0.1-0.7-0.2-1.1c0,12.9,0,25.9,0,38.8c0.1-0.3,0.1-0.7,0.2-1
				c-2.5,5.8-4.9,11.6-7.4,17.4c0.2-0.3,0.3-0.6,0.5-0.9c-8.7,8.7-17.5,17.5-26.2,26.2c0.3-0.2,0.5-0.4,0.8-0.6
				c-5.8,2.5-11.6,4.9-17.4,7.4c0.3-0.1,0.7-0.1,1-0.2c-12.9,0-25.9,0-38.8,0c0.3,0.1,0.7,0.2,1,0.3c-10.7-6.3-21.5-12.5-32.2-18.8
				c0.3,0.2,0.6,0.5,0.9,0.7c-3.8-4.9-7.6-9.8-11.4-14.8c0.2,0.3,0.4,0.6,0.6,1c-2.5-5.8-4.9-11.6-7.4-17.4c0.1,0.4,0.2,0.7,0.3,1.1
				C10,92.5,9.1,86.1,8.2,79.6c-0.1,0.5-0.1,0.9-0.2,1.4c0.9-6.5,1.7-12.9,2.6-19.4c-0.2,0.4-0.3,0.9-0.5,1.3
				c2.5-5.8,4.9-11.6,7.4-17.4c-0.3,0.4-0.5,0.8-0.8,1.2c3.8-4.9,7.6-9.8,11.4-14.8c-5.6,6.5-11.3,12.5-15.9,20.1
				c45.3,12.3,90.7,24.6,136,36.8c-0.1-1.4-0.3-2.8-0.4-4.3c-36.6,21-73.2,42-109.8,63c8.1,5.8,17.9,9.6,27.6,12
				c19.2,4.8,29.2,2.9,48.4,0.2c12.4-3.5,23.1-9.7,32.2-18.8c9-9.1,15.3-19.8,18.8-32.2c6.9-25.1-0.4-52.6-18.8-71
				c-0.3-0.3-0.5-0.5-0.8-0.8c3.8,4.9,7.6,9.8,11.4,14.8c-0.2-0.3-0.3-0.7-0.5-1c3.3,12.3,6.6,24.6,10,36.8c0-0.4-0.1-0.8-0.1-1.1
				c-0.9,6.5-1.7,12.9-2.6,19.4c0.1-0.4,0.2-0.7,0.3-1.1c-2.5,5.8-4.9,11.6-7.4,17.4c0.2-0.3,0.4-0.6,0.6-0.9
				c-8.7,8.7-17.5,17.5-26.2,26.2c0.3-0.2,0.6-0.4,0.9-0.7c-5.8,2.5-11.6,4.9-17.4,7.4c0.4-0.1,0.7-0.2,1.1-0.3
				c-6.5,0.9-12.9,1.7-19.4,2.6c0.4,0,0.8,0,1.1,0.1c10.1,0.4,19.4-1.7,28.1-6.3c9.1-2.9,16.9-8,23.5-15.1
				c7.1-6.6,12.2-14.4,15.1-23.5c4.6-8.7,6.7-18.1,6.3-28.1c-0.8-18.9-7-38.5-21.4-51.6c-4.9-3.8-9.8-7.6-14.8-11.4
				C122.7,13.8,110.4,10.4,97.3,10.4L97.3,10.4z"/>
		</g>
	</g>
</g>
<g>
	<g>
		<g>
			<path d="M94.6,62.9c-10.3-0.5-20.7,0.2-30.9,2.1c-5,0.9-10,2.1-15,3.6c-2.4,0.7-4.7,1.5-7.1,2.4c-2.1,0.8-4.4,1.5-5.9,3.3
				c-1.7,2-1.7,4.5-1.7,7c0,2.7,0,5.4,0,8.1c0,2.7,0,5.4,0,8.1c0,2.4-0.5,5.5,1.3,7.5c1.7,1.9,4.4,1.8,6.7,1.9
				c2.6,0.1,5.2,0.2,7.7,0.2c5.2,0,10.3-0.3,15.5-0.8c11.6-1.2,23-3.8,34-7.6c-1-0.6-2.1-1.2-3.1-1.7c1.7,4.6,0.9,9.4-0.1,14.1
				c-1.1,5.1-2.5,10.1-2.5,15.4c0,1.9,2.1,3.1,3.8,2.2c13.9-8.1,25.9-19.4,34.7-32.9c2.2-3.3,4.1-6.7,5.9-10.3
				c0.9-1.8,1.7-3.6,2.5-5.4c1-2.3,1.8-4.9,0.1-7.1c-1.3-1.7-3.4-2.7-5.2-3.9c-1.8-1.2-3.6-2.5-5.4-3.8c-3.6-2.6-7-5.3-10.3-8.2
				c-7.6-6.4-14.6-13.5-21-21.1c-1-1.2-3.2-0.8-3.9,0.5c-4.3,8.4-2.3,17.9,0,26.6c0.8,3.1,5.6,1.8,4.8-1.3
				c-1.9-7.2-4.2-15.7-0.5-22.7c-1.3,0.2-2.6,0.3-3.9,0.5c11,12.9,23.7,24.4,37.8,33.8c0.8,0.6,1.7,1.1,2.6,1.7
				c0.3,0.2,0.6,0.4,0.9,0.6c0.1,0.1,0.2,0.2,0.3,0.3c0,0,0-0.1,0,0.1c0,0.8-0.6,1.8-0.9,2.5c-0.4,0.9-0.8,1.8-1.2,2.7
				c-1.6,3.4-3.4,6.7-5.4,9.9c-4,6.4-8.7,12.3-14.1,17.7c-6,6-12.7,11.2-20.1,15.4c1.3,0.7,2.5,1.4,3.8,2.2
				c-0.1-10.4,6.1-20.5,2.4-30.8c-0.4-1.2-1.7-2.2-3.1-1.7c-17.9,6.3-36.9,9.1-55.9,8.1c-0.9,0-1.8,0-2.7-0.2
				c-0.8-0.1-0.3-0.2-0.2,0.1c-0.1-0.6-0.1-1.1-0.1-1.7c0-2.4,0-4.9,0-7.3c0-2.5,0-5,0-7.6c0-2.1-0.3-4.5,0-6.6
				c0.3-1.6,2.1-2.1,3.5-2.6c2.2-0.8,4.4-1.6,6.6-2.3c4.5-1.4,9.1-2.6,13.8-3.5c10.4-2.1,21-2.8,31.6-2.3C97.9,68,97.9,63,94.6,62.9
				L94.6,62.9z"/>
		</g>
	</g>
	<g>
		<g>
			<path d="M100,66.9c0.7-2.4,0.4-5-0.8-7.2c-0.3-0.5-0.9-1-1.5-1.1c-0.6-0.2-1.4-0.1-1.9,0.3c-0.5,0.3-1,0.9-1.1,1.5
				c-0.2,0.7-0.1,1.3,0.3,1.9c0.1,0.2,0.2,0.3,0.2,0.5c-0.1-0.2-0.2-0.4-0.3-0.6c0.2,0.6,0.4,1.2,0.5,1.8c0-0.2-0.1-0.4-0.1-0.7
				c0.1,0.6,0.1,1.3,0,1.9c0-0.2,0.1-0.4,0.1-0.7c0,0.4-0.1,0.7-0.2,1.1c-0.2,0.6-0.1,1.4,0.3,1.9c0.3,0.5,0.9,1,1.5,1.1
				c0.6,0.1,1.4,0.1,1.9-0.3C99.4,68,99.9,67.5,100,66.9L100,66.9z"/>
		</g>
	</g>
</g>
</svg>
