<?xml version="1.0" encoding="utf-8"?>
<!-- Generator: Adobe Illustrator 24.2.1, SVG Export Plug-In . SVG Version: 6.00 Build 0)  -->
<svg version="1.1" id="Layer_1" xmlns="http://www.w3.org/2000/svg" xmlns:xlink="http://www.w3.org/1999/xlink" x="0px" y="0px"
	 viewBox="0 0 320.6 390.1" style="enable-background:new 0 0 320.6 390.1;" xml:space="preserve">
<style type="text/css">
	.st0{fill:#E3E0DD;}
	.st1{fill:#E3E0DD;stroke:#131D10;stroke-miterlimit:10;}
	.st2{fill:none;stroke:#131D10;stroke-miterlimit:10;}
	.st3{fill:#222222;stroke:#131D10;stroke-miterlimit:10;}
</style>
<rect class="st0" width="320" height="390"/>
<g>
	<g>
		<polygon class="st1" points="270.9,261.9 175.7,235.4 175.7,229.7 270.9,256.1 		"/>
		<path class="st1" d="M184.2,155.3c0,0-1.7,42.6-4.1,46.8c-2.4,4.2,0.3,7.3,5,0s4.2-41.6,4.2-41.6l-1.3-7.1L184.2,155.3z"/>
		<path class="st1" d="M182.3,237.1c0.2,23.2,0.2,54.6,0.2,54.6c-0.1,1.8,1.4,3.2,3.2,3.2c1.7,0,2.6-1.4,2.7-3
			c0,0-0.3-31.1-0.9-54.6C185.8,237.2,184,237.1,182.3,237.1z"/>
		<polygon class="st1" points="214.6,292.3 119.5,265.9 119.5,260.1 214.6,286.6 		"/>
		<path class="st1" d="M130.1,228.2c-3.2,2.4-8.1,35.9-8.1,35.9c0.7,23.4-2.5,70.2-2.5,70.2c-0.1,1.7-1.2,3-3.2,3
			c-2.1,0-3.8-1.5-3.7-3.2c0,0,2.7-67.2,3-69.8c1-8,3.9-33.1,11.3-37.1C132.4,224.3,133.3,225.9,130.1,228.2z"/>
		<path class="st1" d="M171.3,203.6L131,220.3c0,0-3.1,0-4.3,2.8c-1.2,2.8-8.1,7.2,2.2,11.7c0,0,61.8,18.3,65.5,18.6
			s19.2,1.9,23.9,0s40.7-22.4,42.5-26.5c1.9-4.1-0.3-9.8-4.7-12.3c-4.3-2.5-53.7-11-53.7-11s-14.7-2.5-20.1-2.5
			S171.3,203.6,171.3,203.6z"/>
		<path class="st1" d="M171.7,204.2L132,219.4c0,0-3,0-4.3,2.6s-7.9,6.6,2.1,10.6c0,0,60.6,16.6,64.3,16.9s18.9,1.7,23.5,0
			s39.9-20.3,41.7-24c1.8-3.7-0.3-8.9-4.6-11.1c-4.3-2.3-52.7-10-52.7-10s-14.4-2.3-19.7-2.3C177.1,201.9,171.7,204.2,171.7,204.2z"
			/>
		<path class="st1" d="M274.3,313.8c-0.1,1.7-1.1,3-2.9,3c-1.9,0-3.4-1.5-3.3-3.2c0,0-0.1-75.7-0.8-78.7s-8.5-5.2-8.5-5.2
			s0.1-6.5,3.7-6s8.8,8.8,9.6,10.1C273.5,236.2,274.3,313.8,274.3,313.8z"/>
		<path class="st1" d="M274.3,160.4c0,0-3.7,53.8-5.5,58.7s-4.5,8.4-7.2,11.9s-29.5,18.1-33.5,21.9c-3.7,3.4-7.1,23.3-8.6,30.9
			l-4.9,82.1c-0.1,1.8-1.7,3.2-3.6,3.2c-2,0-3.7-1.6-3.6-3.5l5.3-78.2c0,0,2.7-28.1,7.3-34.1c10.7-10.2,44.5-23.6,44.8-38.3
			c1.2-9.4,3-49.7,3-49.7L274.3,160.4z"/>
		<path class="st1" d="M194.5,117.3c0,0-8.4-1.8-11.6,1.1s0.1,17.7,0.1,17.7s-1.5,8.1,0,10.4s6.4,12,12.1,14.9
			c4.4,2.3,58.9,8.8,65.3,7.1c6.4-1.6,11.9-3.7,14.2-7.4c2.3-3.7,7.3-24.3,7.3-26c0-1.6,0.2-4.5-1.7-6.3c-2.6-2.5-7.4-4.2-9.2-4.9
			C269.3,123.1,194.5,117.3,194.5,117.3z"/>
		<path class="st1" d="M194.1,116.1c0,0-8.5-1.2-11.7,1.7s-3.9,18.2-3.9,18.2s-1.5,8.1,0,10.4c1.5,2.2,6.4,12,12.1,14.9
			c4.4,2.3,58.9,8.8,65.3,7.1s13.3-5.2,14.9-8.1c2.5-4.6,7.5-23.3,7.5-25c0-4.8-1.4-6.8-2.5-7.8s-3.5-3.2-5.3-3.9
			C268.7,123,194.1,116.1,194.1,116.1z"/>
	</g>
	<g>
		<path class="st1" d="M227.2,212.8c0,0,5,5.2,7.4,6.5s17.9,5.7,19.9,6c1.9,0.3,9.7,2.9,10.3,3.9c0.6,0.9-1.7,5.8-10.2,5.3
			c-8.5-0.5-23.1-8.1-23.1-8.1s-8.9-5.6-8.9-7s-0.9-5.1-0.9-5.1L227.2,212.8z"/>
		<path class="st2" d="M209.5,246.8c0-1,1-2.5,1-2.5"/>
		<path class="st1" d="M154,225.7c0.4,3.8,5.1,3,6.4,2.7c1.3-0.3,1.2-1.8,6.9-2.7s11.3-2,13.4-3.2c2.1-1.1,2.5-4.2,3.7-5.3
			c1.3-1.1,3.9-3.3,5.3-3.7c1.5-0.4,8.8-0.3,10.4,0.4c1.7,0.7,3.1,1.7,3.1,1.7s0.3,1.6,1.3,3c1,1.5,3.2,3.6,3.9,4.6s1,6.5,1,6.5
			s0.2,7.8-1,8.8c-1.2,1.1-1.7,5.1-1.4,5.6s2.4,2.5,2.4,2.5c0,1-0.3,1.7,1.5,2.7c1.6,0.9,2.4,0,2.5-0.1c-0.6,1.1-0.9,2,1.5,2.5
			s2.4-0.6,2.8-1.6s-0.3-4.5-0.3-6.3s0.6-6.8,0.7-8.2s4.6-7.8,5.4-9.6c0.8-1.8,7.2-15.2,7.8-16.7c0.6-1.6,3.7-9.3,3.8-11.7
			c0.1-2.3-1.5-14.4-2.1-15.4s-0.6-5.1-1-7.6s0-4.9,0.3-6.2s1.5-6.1,1.5-7.2c0-1.1-0.6-4.1-1.1-5.8s-1-2.8-1-2.8
			c0.9-0.8,1.3-10.3,0.7-10.7s-10.6,3.8-10.6,3.8c-3-1.8-11.2-1.2-11.2-1.2c-1.8-1.5-10.3-3.1-11.9-1.6s1.8,6.4,1.8,6.4
			c-2.1,1.9-4.4,4.2-4.6,5.8c-0.5,3.2,3.4,9.7,3.6,12c0.2,2.3-2.1,5.8-2.7,6.8c-0.6,1-3.7,6.4-5,8.4c-0.8,1.3-1.6,4.4-2,6.8
			c0,0-3.2,3.7-5.1,4.9c-2,1.1-6.9,7.6-7.9,9.8s-1,7-1.6,8.9s-1.2,1.9-2.8,2.7s-5.6,2.5-7.4,2.5s-6.2,1.4-7.6,3
			c-0.2,0.2-0.3,0.4-0.4,0.6C157.1,221.7,153.7,221.9,154,225.7z"/>
		<path class="st2" d="M189.6,206.7c0,0-1,1-1.9,0c-1-1-1.1-4.8-1.2-7s2.1-4.1,2.4-4.9c0.4-0.8,0.2-1.3,0.4-2.4
			c0.1-0.4,0.2-1.6,0.5-3"/>
		<path class="st2" d="M204.5,146.7c0,0-1.9,1.4-4,3.3"/>
		<ellipse class="st3" cx="201" cy="157.3" rx="2.2" ry="2.3"/>
		<ellipse class="st3" cx="205" cy="163.6" rx="1.1" ry="0.9"/>
		<ellipse class="st3" cx="215.5" cy="159.5" rx="2.2" ry="2.3"/>
		<path class="st2" d="M197.6,176.8c0,0,0.9,9.3,0.7,12.3s-2.2,5.6-2.8,7.5s0,3.5,0,3.5s0.2,3.5-1,4.8s-1.6,1.5-3.2,2.2
			c-1.6,0.7-3-3.2-3-3.2"/>
		<path class="st2" d="M230.4,186.6c-0.2,0.3-7.1,10.5-14.2,11.2c-7.1,0.7-4.7-0.4-6.3,0.3s-3.7,4-4.5,5.3s-4.4,5.8-5.8,6.2
			c-1.4,0.4-2.7,0.2-3.3-0.6"/>
		<path class="st2" d="M216.9,181.5c0,0-1.1,4-0.7,5.1c0,0-6.7,2.7-8.9,4.6c-2.2,1.9-5.6,4.3-7,5.9c-1.4,1.6-5,2.7-5,2.7"/>
		<path class="st2" d="M198.7,207.2c0,0-2.2,2.3-4.3,2s-1.7-1.6-1.7-1.6"/>
		<path class="st2" d="M195.4,205.7c-0.2,0.2-1.8,2.1-3.8,1.6"/>
	</g>
</g>
</svg>
