<?xml version="1.0" encoding="utf-8"?>
<!-- Generator: Adobe Illustrator 24.2.1, SVG Export Plug-In . SVG Version: 6.00 Build 0)  -->
<svg version="1.1" id="Layer_1" xmlns="http://www.w3.org/2000/svg" xmlns:xlink="http://www.w3.org/1999/xlink" x="0px" y="0px"
	 viewBox="0 0 132.5 147.3" style="enable-background:new 0 0 132.5 147.3;" xml:space="preserve">
<style type="text/css">
	.st0{fill:none;stroke:#FFFFFF;stroke-width:2;stroke-miterlimit:10;}
	.st1{fill:#FFFFFF;}
	.st2{fill:none;stroke:#FFFFFF;stroke-width:3;stroke-miterlimit:10;}
	.st3{fill:#EF5E9F;}
	.st4{fill:none;stroke:#EF5E9F;stroke-miterlimit:10;}
	.st5{fill:#EF5E9F;stroke:#FFFFFF;stroke-miterlimit:10;}
</style>
<g>
	<path class="st0" d="M128.4,129.1c0,0-5.5,13.2-24.5,17.2l-43.3-0.7c0,0-7.7-0.7-10.5-3l-10.7,3.7H10.6c0,0,0-12.2-2.8-19.5
		c-2.8-7.3-6.3-41.3-6.3-41.3v-56c0,0-1.8-26.6,2-28.3c2.9-1.2,14,8.8,19.5,14.1c2.4-0.6,5.1-0.9,8-0.9c3.3,0,6.4,0.4,9.1,1.2
		c5.4-5.8,15-15.4,17.8-14.3c3.9,1.6,3.7,28.1,3.7,28.1l0,0c1.2,2.9,1.2,6.1,1.2,9.9c0,2.3-0.3,4.5-0.7,6.5c0,0,0,0,0,0
		c0,0,0,0,0,0.1c-0.1,0.2-0.2,0.7-0.4,1.3c0,0,0,0.1,0,0.1c-0.5,2.2-1.3,6.3-0.9,9.5c0.7,4.7,9.3,6.1,18.2,24.2
		c12,24.3,6.5,46.5,6.5,46.5h17.7c0,0,9.3-1.2,10.5-8.2c1.2-7-3-10.3-3.5-13.8s1.2-7.3,3.7-8.7c2.5-1.3,11.5,0.7,16,10.7
		C134.3,117.4,128.4,129.1,128.4,129.1z"/>
	<ellipse class="st1" cx="43.6" cy="34.7" rx="3.7" ry="4.7"/>
	<ellipse class="st1" cx="33.2" cy="46" rx="1.8" ry="1.8"/>
	<ellipse class="st1" cx="20.9" cy="34.7" rx="3.7" ry="4.7"/>
	<path class="st0" d="M6.9,8.4C5.9,9.3,5.6,19,6.1,19.9s9.3-2.7,9.2-3.7C15.2,15.3,7.8,7.5,6.9,8.4z"/>
	<path class="st2" d="M1.3,64.2c0,0,15.8,8,32.9,6.7c16.4-1.2,29-10.2,29-10.2"/>
	<circle class="st3" cx="33.1" cy="73.7" r="4.8"/>
	<path class="st0" d="M55.7,9.2c-1.4-0.1-9,7.1-9.2,8.2c-0.3,1,9.1,4.9,9.7,4.2C56.8,20.8,57.1,9.3,55.7,9.2z"/>
	<path class="st4" d="M33.1,73.1"/>
	<circle class="st1" cx="33.1" cy="73.7" r="1"/>
	<line class="st5" x1="33.1" y1="73.7" x2="33.1" y2="68.9"/>
</g>
</svg>
