<?xml version="1.0" encoding="utf-8"?>
<!-- Generator: Adobe Illustrator 24.2.1, SVG Export Plug-In . SVG Version: 6.00 Build 0)  -->
<svg version="1.1" id="Layer_1" xmlns="http://www.w3.org/2000/svg" xmlns:xlink="http://www.w3.org/1999/xlink" x="0px" y="0px"
	 viewBox="0 0 118.2 352.1" style="enable-background:new 0 0 118.2 352.1;" xml:space="preserve">
<style type="text/css">
	.st0{fill:#EF5E9F;}
	.st1{fill:#FFFFFF;}
</style>
<g>
	<path class="st0" d="M0.3,38c-1.9,1.6,7,14,7,14l7-7C14.3,45,1.6,36.3,0.3,38z"/>
	<path class="st0" d="M34.8,0c-2.5,0.5-0.7,15.6-0.7,15.6l9.5-2.7C43.6,13,36.8-0.7,34.8,0z"/>
	<path class="st0" d="M89.5,3.1c-2.1-1.3-11.1,11-11.1,11l8.8,4.5C87.1,18.5,91.4,3.8,89.5,3.1z"/>
	<path class="st0" d="M117.9,32.9c-1.8-1.7-13,8.8-13,8.8l7.8,6C112.7,47.7,119.7,34,117.9,32.9z"/>
	<path class="st1" d="M111,345l-50.7,7.1l-49.5-3.6l3.5-56c0.6-18.1,4.2-103.1,4.2-103.1c0.9-19,5.1-73.6,5.1-73.6
		s-0.9-10.1-1.7-14.1c-0.8-4-1.8-12.2-5.1-18.8s-6.7-14-6.7-14c-2.9-4.1-4.3-8.7-4.3-12.7c0-3.6,1.2-6.9,3.5-9.1
		c3.7-3.4,9.3-3.6,14.7-1c-0.3-1.3-0.6-2.7-0.8-4.1c-2.1-15.1,5.7-29,17.5-30.8c6.9-1.1,13.7,2.2,18.6,8.2
		c6.6-7.1,15.5-10.1,23.2-6.9c9.2,3.9,13.8,15.5,11.6,27.7c5.2-2.3,10.3-2.3,14.3,0.3c8.4,5.5,8.6,20.9,0.5,34.2
		c-0.8,1.4-1.8,2.7-2.7,4c-0.2,0.2-1.2,1.8-2.4,3.8c-1.1,1.9-2.3,4.2-2.7,5.6c-0.9,3-1.3,14.3-1.3,17.9c0,3.5,1.1,43.2,1.6,48.9
		c0.4,4.6,1.1,26.3,1.9,42.4c0.1,2.7,5.7,73.9,5.8,96.2L111,345z"/>
	<path class="st1" d="M105.9,189.7"/>
	<path class="st1" d="M105.9,190.2"/>
</g>
</svg>
