<?xml version="1.0" encoding="utf-8"?>
<!-- Generator: Adobe Illustrator 24.2.1, SVG Export Plug-In . SVG Version: 6.00 Build 0)  -->
<svg version="1.1" id="Layer_1" xmlns="http://www.w3.org/2000/svg" xmlns:xlink="http://www.w3.org/1999/xlink" x="0px" y="0px"
	 viewBox="0 0 62.5 26.1" style="enable-background:new 0 0 62.5 26.1;" xml:space="preserve">
<style type="text/css">
	.st0{fill:none;stroke:#FFFFFF;stroke-width:2;stroke-miterlimit:10;}
</style>
<path class="st0" d="M1.2,26.1c-0.3-7.2-0.8-23.7,2.2-25c2.9-1.2,14,8.8,19.5,14.1c2.4-0.6,5.1-0.9,8-0.9c3.3,0,6.4,0.4,9.1,1.2
	C45.4,9.7,55,0.1,57.8,1.2c3.1,1.3,3.6,17.8,3.7,24.9"/>
<path class="st0" d="M6.8,8.4C5.8,9.3,5.6,19,6.1,19.9s9.3-2.7,9.2-3.7C15.1,15.3,7.8,7.6,6.8,8.4z"/>
<path class="st0" d="M55.6,9.2c-1.4-0.1-9,7.1-9.2,8.2s9.1,4.9,9.7,4.2C56.7,20.8,57,9.3,55.6,9.2z"/>
</svg>
