<?xml version="1.0" encoding="utf-8"?>
<!-- Generator: Adobe Illustrator 26.5.1, SVG Export Plug-In . SVG Version: 6.00 Build 0)  -->
<svg version="1.1" id="Layer_1" xmlns="http://www.w3.org/2000/svg" xmlns:xlink="http://www.w3.org/1999/xlink" x="0px" y="0px"
	 viewBox="0 0 175.8 163.7" style="enable-background:new 0 0 175.8 163.7;" xml:space="preserve">
<style type="text/css">
	.st0{fill:#E3E0DD;}
</style>
<g>
	<g>
		<g>
			<path d="M89.6,2.2c-17.9-5.3-37.8-0.7-52.7,10c-14.8,10.6-25.1,26.3-31,43.4c-6.5,18.7-7.8,39.8-1.1,58.7
				c5.8,16.4,17.4,31,33.1,38.9c8.8,4.4,18.5,6.8,28.2,8.2c10.2,1.4,20.6,2.1,30.9,1.6c9.6-0.5,19.3-2.2,28.2-5.8
				c7.3-3,14-7.1,20.1-12.1c12-9.9,21.1-23.4,26.1-38.1c5.1-14.8,5.8-31.1,1.3-46.1c-4.5-15.1-13.9-28.7-25.9-38.9
				c-12.3-10.3-27.2-17.2-43.1-19.3C99.9,2.1,96.1,1.9,92.2,2c-3.2,0.1-3.2,5.1,0,5c15-0.5,29.7,4,42.3,12s23,19.4,29.5,32.8
				c6.4,13.3,8.3,28.4,5.5,42.8c-2.7,14.4-9.5,27.9-19.4,38.8c-10.2,11.3-23.4,19.2-38.3,22.5C102,158,92,158.3,82,157.8
				c-9.5-0.5-19-1.5-28.1-4c-8.5-2.3-16.7-5.9-23.6-11.4C24,137.3,18.7,131,14.7,124c-9-15.8-11.2-34.6-7.9-52.4
				C10,54.4,17.8,37.5,30,24.8C42,12.3,58.6,4.4,76,5c4.2,0.1,8.3,0.8,12.3,2C91.4,7.9,92.7,3.1,89.6,2.2L89.6,2.2z"/>
		</g>
	</g>
	<g>
		<g>
			<path d="M99,10.3c-0.4,0-0.9,0-1.3-0.1c-6.5,0.9-12.9,1.7-19.4,2.6c-0.4,0.1-0.8,0.3-1.3,0.4c-5.8,2.5-11.6,4.9-17.4,7.4
				c-0.4,0.3-0.7,0.5-1.1,0.8c-4.9,3.8-9.8,7.6-14.8,11.4c-3.8,4.9-7.6,9.8-11.4,14.8c-2.1,2.9-3.6,6.2-4.4,9.8
				c-4.7,11-3.7,7.7-5.3,19.7c-1.6,12.2-1.5,8.5,0.2,20.7c0,6.6,1.7,12.7,5,18.4c1.2,3.2,2.5,6.3,4,9.3c2.8,4.9,8.6,12.3,12.6,16.3
				c10.7-40.7,21.5-81.3,32.2-122C76.1,19.9,75.5,20,75,20c6.5-0.9,12.9-1.7,19.4-2.6c-2.7,0.2-5.3,0.2-8.1-0.2
				c6.5,0.9,12.9,1.7,19.4,2.6c-2.1-0.4-4.2-1-6.2-1.7c5.8,2.5,11.6,4.9,17.4,7.4c-2.5-1.1-4.8-2.4-7-4C98.5,15,86.2,11.7,73,11.6
				c-13.2,0-25.5,3.4-36.8,10c-11,6.5-19.7,15.2-26.2,26.2C3.4,59.2,0,71.5,0,84.6c0.1,1.7,0.3,3.3,0.4,5C1.3,96.1,2.1,102.5,3,109
				c2.3,9.5,6.6,17.8,13.1,24.8c3.2,5.5,7.6,9.8,13.1,13.1c7.1,6.5,15.3,10.8,24.8,13.1c12.8,2.9,26,2.9,38.8,0
				c17.7-4,34.4-18.4,43.6-33.5c0.3-0.5,0.6-0.9,0.8-1.4c-3.8,4.9-7.6,9.8-11.4,14.8c10.5-12.7,20.2-23.4,24.7-39.9
				c7.1-26.5-0.2-55.4-19.6-75C112,5.7,82.7-2.2,56.6,5.1C38.1,10.3,22,22.7,12.2,39.2C5.1,51.1,4.3,56.3,2.7,68.1
				C1.1,80,0.4,85.9,4.2,99.2c3.7,13,10.7,24.7,20.3,34.2c15.9,15.6,35.8,21.8,57.4,23.3c2.2,0.2,4.2,0.2,6.4,0
				c7.3-0.5,15.4-1.5,22.6-3.2c9.6-2.3,19.5-6.3,27.5-12.1c-36.6-21-73.2-42-109.8-63c0.2,2.8,0.5,5.6,0.7,8.4
				c-0.4,10.1,1.7,19.4,6.3,28.1c2.9,9.1,8,16.9,15.1,23.5c6.6,7.1,14.4,12.2,23.5,15.1c8.7,4.6,18.1,6.7,28.1,6.3
				c18.9-0.8,38.5-7,51.6-21.4c12.5-13.6,23-32.5,21.4-51.6c-0.2-2.8-0.5-5.6-0.7-8.4c0-13.2-3.4-25.5-10-36.8
				c-6.5-11-15.2-19.7-26.2-26.2c-11.4-6.6-23.7-9.9-36.8-10c-13.2,0-25.5,3.4-36.8,10c-1.8,1.3-3.6,2.3-5.5,3.3
				c5.8-2.5,11.6-4.9,17.4-7.4c-2.5,1-5,1.7-7.7,2.1c6.5-0.9,12.9-1.7,19.4-2.6c-2.2,0.2-4.2,0.2-6.4,0c6.5,0.9,12.9,1.7,19.4,2.6
				c-1.6-0.3-3-0.6-4.5-1.2c5.8,2.5,11.6,4.9,17.4,7.4c-0.4-0.3-0.9-0.5-1.3-0.8c4.9,3.8,9.8,7.6,14.8,11.4c-0.3-0.4-0.7-0.7-1-1.1
				c3.8,4.9,7.6,9.8,11.4,14.8c-0.2-0.3-0.3-0.6-0.5-0.9c2.5,5.8,4.9,11.6,7.4,17.4c-0.1-0.3-0.2-0.7-0.2-1
				c0.9,6.5,1.7,12.9,2.6,19.4c0-0.3,0-0.7,0-1c-0.9,6.5-1.7,12.9-2.6,19.4c0.1-0.3,0.2-0.6,0.3-0.9c-2.5,5.8-4.9,11.6-7.4,17.4
				c0.2-0.3,0.4-0.5,0.5-0.8c-8.7,8.7-17.5,17.5-26.2,26.2c0.3-0.2,0.5-0.4,0.8-0.5c-5.8,2.5-11.6,4.9-17.4,7.4
				c0.4-0.1,0.8-0.1,1.2-0.2c-12.9,0-25.9,0-38.8,0c0.4,0.1,0.8,0.3,1.2,0.4c-10.7-6.3-21.5-12.5-32.2-18.8c0.3,0.3,0.7,0.5,1,0.8
				c-3.8-4.9-7.6-9.8-11.4-14.8c0.2,0.4,0.5,0.7,0.7,1.1c-2.5-5.8-4.9-11.6-7.4-17.4c0.1,0.4,0.2,0.8,0.3,1.3
				C9.2,91.9,8.4,85.5,7.5,79c-0.1,0.5-0.1,1.1-0.2,1.6c0.8-6.6,1.6-13,2.5-19.5c-0.2,0.5-0.4,1-0.6,1.5c2.5-5.8,4.9-11.6,7.4-17.4
				c-0.3,0.5-0.6,0.9-0.9,1.4c3.8-4.9,7.6-9.8,11.4-14.8c-5.9,6.8-11.8,13.1-16.7,21c45.3,12.3,90.7,24.6,136,36.8
				c-0.1-1.7-0.3-3.3-0.4-5c-36.6,21-73.2,42-109.8,63c2,1.4,4,2.6,6.3,3.6c7.3,3.4,14.9,7.2,22.8,9.1c7.7,1.8,16.3,2.8,24.2,3.2
				c8.6,0.4,17.5-1.8,25.9-3c12.4-3.5,23.1-9.7,32.2-18.8c9-9.1,15.3-19.8,18.8-32.2c6.9-25.1-0.4-52.6-18.8-71
				c-0.3-0.3-0.6-0.6-0.9-0.9c3.8,4.9,7.6,9.8,11.4,14.8c-0.2-0.4-0.4-0.8-0.6-1.2c3.3,12.3,6.6,24.6,10,36.8
				c-0.1-0.4-0.1-0.9-0.2-1.3c-0.9,6.5-1.7,12.9-2.6,19.4c0.1-0.4,0.2-0.9,0.3-1.3c-2.5,5.8-4.9,11.6-7.4,17.4
				c0.3-0.4,0.5-0.7,0.8-1.1c-8.7,8.7-17.5,17.5-26.2,26.2c0.4-0.3,0.7-0.5,1.1-0.8c-5.8,2.5-11.6,4.9-17.4,7.4
				c0.4-0.1,0.8-0.3,1.3-0.4c-6.5,0.9-12.9,1.7-19.4,2.6c0.4,0,0.9,0,1.3,0.1c10.1,0.4,19.4-1.7,28.1-6.3c9.1-2.9,16.9-8,23.5-15.1
				c7.1-6.6,12.2-14.4,15.1-23.5c4.6-8.7,6.7-18.1,6.3-28.1c-0.8-18.9-7-38.5-21.4-51.6c-4.9-3.8-9.8-7.6-14.8-11.4
				C124.4,13.7,112.2,10.4,99,10.3L99,10.3z"/>
		</g>
	</g>
</g>
<g>
	<g>
		<g>
			<path class="st0" d="M89.6,4.1c-17.5-5.2-36.9-0.7-51.5,9.8C23.6,24.2,13.6,39.5,7.8,56.2c-6.3,18.3-7.6,38.9-1.1,57.3
				c5.7,16,17,30.3,32.3,38c8.6,4.3,18.1,6.6,27.5,8c10,1.4,20.1,2.1,30.2,1.6c9.4-0.5,18.9-2.1,27.5-5.7
				c7.1-2.9,13.7-6.9,19.6-11.8c11.7-9.7,20.6-22.9,25.5-37.2c5-14.5,5.7-30.4,1.3-45c-4.4-14.7-13.6-28-25.3-38
				c-12-10.1-26.6-16.8-42.1-18.9C99.6,4,95.9,3.8,92.1,3.9c-3.1,0.1-3.1,5,0,4.9c14.7-0.5,29,3.9,41.3,11.7s22.5,18.9,28.8,32
				c6.3,13,8.1,27.7,5.4,41.8c-2.6,14.1-9.3,27.3-18.9,37.9c-10,11-22.9,18.8-37.4,22c-9.6,2.1-19.3,2.3-29.1,1.9
				c-9.3-0.5-18.6-1.5-27.4-3.9c-8.3-2.2-16.3-5.8-23.1-11.1c-6.2-5-11.3-11.1-15.2-18C7.6,107.6,5.5,89.2,8.7,71.8
				C11.8,55,19.4,38.5,31.3,26.1C43.1,13.9,59.3,6.2,76.3,6.8c4.1,0.1,8.1,0.8,12,2C91.3,9.6,92.6,4.9,89.6,4.1L89.6,4.1z"/>
		</g>
	</g>
	<g>
		<g>
			<path class="st0" d="M98.7,12c-0.4,0-0.9,0-1.3-0.1c-6.3,0.9-12.6,1.7-18.9,2.5c-0.4,0.1-0.8,0.3-1.3,0.4
				c-5.7,2.4-11.3,4.8-17,7.2c-0.4,0.3-0.7,0.5-1.1,0.8c-4.8,3.7-9.6,7.4-14.5,11.1c-3.7,4.8-7.4,9.6-11.1,14.5
				c-2.1,2.8-3.5,6.1-4.3,9.6c-4.6,10.7-3.6,7.5-5.2,19.2c-1.6,11.9-1.5,8.3,0.2,20.2c0,6.4,1.7,12.4,4.9,18
				c1.2,3.1,2.4,6.2,3.9,9.1c2.7,4.8,8.4,12,12.3,15.9c10.5-39.8,21-79.4,31.5-119.2c-0.5,0.1-1.1,0.2-1.6,0.2
				c6.3-0.9,12.6-1.7,18.9-2.5c-2.6,0.2-5.2,0.2-7.9-0.2c6.3,0.9,12.6,1.7,18.9,2.5c-2.1-0.4-4.1-1-6.1-1.7c5.7,2.4,11.3,4.8,17,7.2
				c-2.4-1.1-4.7-2.3-6.8-3.9c-11.1-6.3-23.1-9.6-36-9.7c-12.9,0-24.9,3.3-35.9,9.8c-10.7,6.3-19.2,14.8-25.6,25.6
				C5.4,59.7,2,71.7,2,84.5c0.1,1.7,0.3,3.2,0.4,4.9C3.3,95.8,4.1,102,5,108.4c2.2,9.3,6.4,17.4,12.8,24.2
				c3.1,5.4,7.4,9.6,12.8,12.8c6.9,6.3,14.9,10.5,24.2,12.8c12.5,2.8,25.4,2.8,37.9,0c17.3-3.9,33.6-18,42.6-32.7
				c0.3-0.5,0.6-0.9,0.8-1.4c-3.7,4.8-7.4,9.6-11.1,14.5c10.3-12.4,19.7-22.9,24.1-39c6.9-25.9-0.2-54.1-19.1-73.3
				C111.4,7.5,82.8-0.2,57.3,6.9C39.3,12,23.5,24.1,14,40.2C7,51.8,6.2,56.9,4.7,68.4C3.1,80,2.4,85.8,6.1,98.8
				c3.6,12.7,10.5,24.1,19.8,33.4c15.5,15.2,35,21.3,56.1,22.8c2.1,0.2,4.1,0.2,6.3,0c7.1-0.5,15-1.5,22.1-3.1
				c9.4-2.2,19-6.2,26.9-11.8C101.5,119.5,65.7,99,30,78.5c0.2,2.7,0.5,5.5,0.7,8.2c-0.4,9.9,1.7,18.9,6.2,27.4
				c2.8,8.9,7.8,16.5,14.7,23c6.4,6.9,14.1,11.9,23,14.7c8.5,4.5,17.7,6.5,27.4,6.2c18.5-0.8,37.6-6.8,50.4-20.9
				c12.2-13.3,22.5-31.7,20.9-50.4c-0.2-2.7-0.5-5.5-0.7-8.2c0-12.9-3.3-24.9-9.8-35.9c-6.3-10.7-14.8-19.2-25.6-25.6
				c-11.1-6.4-23.1-9.7-35.9-9.8c-12.9,0-24.9,3.3-35.9,9.8c-1.8,1.3-3.5,2.2-5.4,3.2c5.7-2.4,11.3-4.8,17-7.2
				c-2.4,1-4.9,1.7-7.5,2.1c6.3-0.9,12.6-1.7,18.9-2.5c-2.1,0.2-4.1,0.2-6.3,0c6.3,0.9,12.6,1.7,18.9,2.5c-1.6-0.3-2.9-0.6-4.4-1.2
				c5.7,2.4,11.3,4.8,17,7.2c-0.4-0.3-0.9-0.5-1.3-0.8c4.8,3.7,9.6,7.4,14.5,11.1c-0.3-0.4-0.7-0.7-1-1.1c3.7,4.8,7.4,9.6,11.1,14.5
				c-0.2-0.3-0.3-0.6-0.5-0.9c2.4,5.7,4.8,11.3,7.2,17c-0.1-0.3-0.2-0.7-0.2-1c0.9,6.3,1.7,12.6,2.5,18.9c0-0.3,0-0.7,0-1
				c-0.9,6.3-1.7,12.6-2.5,18.9c0.1-0.3,0.2-0.6,0.3-0.9c-2.4,5.7-4.8,11.3-7.2,17c0.2-0.3,0.4-0.5,0.5-0.8
				c-8.5,8.5-17.1,17.1-25.6,25.6c0.3-0.2,0.5-0.4,0.8-0.5c-5.7,2.4-11.3,4.8-17,7.2c0.4-0.1,0.8-0.1,1.2-0.2c-12.6,0-25.3,0-37.9,0
				c0.4,0.1,0.8,0.3,1.2,0.4c-10.5-6.2-21-12.2-31.5-18.4c0.3,0.3,0.7,0.5,1,0.8c-3.7-4.8-7.4-9.6-11.1-14.5
				c0.2,0.4,0.5,0.7,0.7,1.1c-2.4-5.7-4.8-11.3-7.2-17c0.1,0.4,0.2,0.8,0.3,1.3c-0.9-6.3-1.7-12.6-2.5-18.9
				c-0.1,0.5-0.1,1.1-0.2,1.6c0.8-6.4,1.6-12.7,2.4-19c-0.2,0.5-0.4,1-0.6,1.5c2.4-5.7,4.8-11.3,7.2-17c-0.3,0.5-0.6,0.9-0.9,1.4
				c3.7-4.8,7.4-9.6,11.1-14.5C22.8,39.6,17,45.8,12.2,53.5c44.2,12,88.6,24,132.8,35.9c-0.1-1.7-0.3-3.2-0.4-4.9
				c-35.7,20.5-71.5,41-107.2,61.5c2,1.4,3.9,2.5,6.2,3.5c7.1,3.3,14.6,7,22.3,8.9c7.5,1.8,15.9,2.7,23.6,3.1
				c8.4,0.4,17.1-1.8,25.3-2.9c12.1-3.4,22.6-9.5,31.5-18.4c8.8-8.9,14.9-19.3,18.4-31.5c6.7-24.5-0.4-51.4-18.4-69.3
				c-0.3-0.3-0.6-0.6-0.9-0.9c3.7,4.8,7.4,9.6,11.1,14.5c-0.2-0.4-0.4-0.8-0.6-1.2c3.2,12,6.4,24,9.8,35.9c-0.1-0.4-0.1-0.9-0.2-1.3
				c-0.9,6.3-1.7,12.6-2.5,18.9c0.1-0.4,0.2-0.9,0.3-1.3c-2.4,5.7-4.8,11.3-7.2,17c0.3-0.4,0.5-0.7,0.8-1.1
				c-8.5,8.5-17.1,17.1-25.6,25.6c0.4-0.3,0.7-0.5,1.1-0.8c-5.7,2.4-11.3,4.8-17,7.2c0.4-0.1,0.8-0.3,1.3-0.4
				c-6.3,0.9-12.6,1.7-18.9,2.5c0.4,0,0.9,0,1.3,0.1c9.9,0.4,18.9-1.7,27.4-6.2c8.9-2.8,16.5-7.8,23-14.7c6.9-6.4,11.9-14.1,14.7-23
				c4.5-8.5,6.5-17.7,6.2-27.4c-0.8-18.5-6.8-37.6-20.9-50.4c-4.8-3.7-9.6-7.4-14.5-11.1C123.5,15.3,111.6,12.1,98.7,12L98.7,12z"/>
		</g>
	</g>
</g>
</svg>
