<?xml version="1.0" encoding="utf-8"?>
<!-- Generator: Adobe Illustrator 24.2.1, SVG Export Plug-In . SVG Version: 6.00 Build 0)  -->
<svg version="1.1" id="Layer_1" xmlns="http://www.w3.org/2000/svg" xmlns:xlink="http://www.w3.org/1999/xlink" x="0px" y="0px"
	 viewBox="0 0 140.6 98.5" style="enable-background:new 0 0 140.6 98.5;" xml:space="preserve">
<style type="text/css">
	.st0{fill:#DAE121;}
	.st1{fill:#E3E0DD;}
</style>
<g>
	<path class="st0" d="M3.9,20.1c0.6,19.4,0.6,38.8-0.1,58.1c-0.1,3.4-0.1,7.2,2.3,9.5c1.1,1.1,2.6,1.7,4,2.2
		c17.5,6.1,36.7,2.2,55.1,4.3c4.5,0.5,8.9,1.4,13.4,1.7c7.9,0.5,15.9-0.7,23.7-2c5.5-0.9,11-1.7,16.5-2.6c4.4-0.7,9.1-1.5,12.5-4.4
		c4.5-3.9,5.6-10.4,6-16.3c1.4-17,0.8-34.2-1.9-51c-0.3-1.7-0.6-3.5-1.4-5c-2.2-4.1-7.2-5.5-11.8-6.4C108,5.3,93.5,3.5,78.9,2.8
		c-6-0.3-12-0.4-17.9,0c-9.4,0.7-18.7,2.7-28.1,2.7c-6.5,0-13.2-1-19.4,0.9s-12,7.7-10.9,14.1"/>
	<g>
		<path class="st0" d="M1.4,20.1C1.9,35.1,2,50.2,1.7,65.3c-0.1,3.8-0.2,7.6-0.3,11.4c-0.1,3-0.3,6.2,0.7,9c1.2,3.4,3.8,5.2,7.1,6.4
			c3.2,1.2,6.5,1.9,9.8,2.5c13.8,2.3,27.8,0.7,41.6,1.6c7.2,0.5,14.3,2.1,21.5,2.2c7.4,0.1,14.8-1.2,22.2-2.4
			c3.6-0.6,7.3-1.1,10.9-1.7c3.3-0.5,6.6-0.9,9.9-1.7c3.1-0.8,6-2.1,8.4-4.3c2.2-2,3.6-4.6,4.6-7.4c2.1-6,2.2-12.9,2.4-19.2
			c0.3-7.5,0.2-14.9-0.2-22.4c-0.5-7.3-1.1-14.6-2.5-21.8c-0.6-3.3-2.1-6-4.8-8.1c-2.3-1.7-5.1-2.6-7.8-3.3c-6.9-1.6-14-2.6-21-3.6
			c-7.4-1-14.8-1.7-22.3-2.2C74.5,0,67.2-0.2,60,0.3c-7.4,0.6-14.8,2-22.2,2.5c-7.1,0.5-14.3-0.7-21.3,0.4c-6,0.9-12,4.1-14.9,9.6
			c-1.4,2.6-1.8,5.4-1.4,8.3c0.2,1.3,1.9,2.1,3.1,1.7c1.4-0.4,2-1.7,1.7-3.1c-0.7-4.8,3.8-8.9,7.7-10.5c5.9-2.5,12.8-1.4,19-1.3
			c7,0.1,14-1,21-1.8c6.9-0.9,13.8-1.3,20.8-1.1c13.9,0.4,27.7,1.9,41.4,4.2c3.1,0.5,6.2,1,9.2,1.8c2.3,0.6,4.8,1.3,6.5,3
			c2,1.9,2.3,4.9,2.7,7.5c0.5,3.5,0.9,7,1.3,10.5c0.7,7,1,13.9,1,20.9c0,6.7-0.2,13.5-1,20.2c-0.6,4.9-2,10.3-6.5,12.9
			c-2.4,1.4-5.3,2-8,2.5c-3.2,0.6-6.5,1-9.7,1.5c-6.8,1.1-13.7,2.3-20.6,3c-3.5,0.3-7.1,0.5-10.7,0.3c-3.3-0.2-6.6-0.7-9.8-1.2
			C62.6,91.3,55.9,91,49.1,91c-6.6,0-13.1,0.2-19.7-0.2c-6.4-0.4-12.9-1.3-19-3.5c-2.5-0.9-3.7-2.4-4.1-5c-0.4-3,0-6.1,0.1-9.1
			C6.9,59,6.9,44.7,6.7,30.5c-0.1-3.5-0.2-7-0.3-10.4C6.3,16.8,1.3,16.8,1.4,20.1L1.4,20.1z"/>
	</g>
</g>
<g>
	<g>
		<path class="st1" d="M12.7,27.2c-0.3,13.6-0.7,27.1-1,40.7c-0.1,4.3-0.1,9,2.5,12.5c2,2.7,5.2,4.1,8.4,4.9c2.9,0.7,5.9,0.9,8.9,1
			c27.5,1.4,55,1.3,82.5-0.5c3.3-0.2,6.8-0.5,9.7-2.2c5.4-3.2,7-10.2,6.9-16.4c-0.1-4.6-0.9-9.1-1.5-13.6c-1-8.2-1.4-16.6-1-24.8
			c0.2-4.2,0.2-9.2-3.1-11.8c-1.2-0.9-2.6-1.4-4-1.8c-7.5-2.2-15.4-2.5-23.2-2.7c-11.1-0.4-22.3-0.8-33.3,0.7
			c-3.5,0.5-6.9,1.2-10.4,1.4c-3.6,0.2-7.2,0-10.8-0.2c-4.2-0.3-8.4-0.6-12.7-0.8c-4.9-0.3-10.1-0.6-14.5,1.6s-7.5,7.8-5.2,12.2"/>
		<g>
			<path d="M10.2,27.2c-0.3,13.2-0.7,26.5-1,39.7c-0.1,5.6-0.2,11.6,3.8,16c4,4.4,10.3,5.4,15.9,5.8c13.2,0.9,26.4,1.1,39.6,1.1
				c13.3,0,26.7-0.4,40-1.1c5.7-0.3,12.4,0,17.3-3.4c4.1-2.9,6.2-7.6,6.9-12.4c0.9-6-0.1-12-0.9-17.9c-0.9-6.4-1.3-12.8-1.3-19.3
				c0-3,0.2-6,0.2-9c0-2.5-0.1-5-1-7.3c-1-2.6-2.9-4.5-5.4-5.7c-2.8-1.2-5.9-1.8-8.9-2.3c-6.3-1-12.6-1.2-19-1.5
				c-6.5-0.2-13.1-0.4-19.7-0.2c-6.5,0.2-12.9,1.2-19.3,2c-6.5,0.8-13,0.2-19.5-0.3c-6.1-0.4-12.4-1.4-18.4-0.2
				c-5.2,1.1-10,4.5-11.5,9.8c-0.7,2.5-0.5,5.1,0.7,7.4c0.6,1.2,2.3,1.5,3.4,0.9c1.2-0.7,1.5-2.2,0.9-3.4c-1.7-3.5,1.6-7.6,4.7-9
				c4.8-2.2,10.7-1.2,15.8-0.9c6.2,0.4,12.4,1.1,18.6,1c6-0.1,11.8-1.5,17.8-2.1c6.2-0.5,12.4-0.6,18.6-0.4
				c5.9,0.1,11.9,0.3,17.8,0.7c2.9,0.2,5.8,0.5,8.6,1c2.6,0.5,5.6,0.9,7.9,2.2c3.7,2.1,2.9,7.7,2.8,11.3c-0.2,6.2-0.1,12.4,0.5,18.5
				c0.5,6,1.7,11.9,2,17.9c0.2,4.2-0.3,8.8-2.7,12.4c-2.7,4.1-7.7,4.4-12.1,4.7c-24.8,1.5-49.7,1.8-74.6,0.8c-3-0.1-6.1-0.3-9.1-0.4
				c-2.8-0.2-5.5-0.5-8.2-1.3c-2-0.7-4-1.8-5.3-3.5c-1.3-1.8-1.7-4.1-1.9-6.3c-0.2-2.7,0-5.4,0.1-8.1c0.1-3.1,0.2-6.3,0.2-9.4
				c0.2-6.2,0.3-12.4,0.5-18.6c0.1-3.1,0.2-6.1,0.2-9.2C15.3,24,10.3,24,10.2,27.2L10.2,27.2z"/>
		</g>
	</g>
	<g>
		<path class="st1" d="M12.1,20.8c3.6,7.1,10.5,11.9,17.2,16.4c7.4,5,14.9,10,22.3,15.1c7.9,5.3,17,10.8,26.2,8.6
			c4.6-1.1,8.6-4.1,12.3-7.1c5.4-4.2,10.8-8.4,16.2-12.6c8.1-6.3,16.7-13.4,18.8-23.4"/>
		<g>
			<path d="M9.9,22.1c4.3,8.4,12.6,13.6,20.2,18.7c4.7,3.2,9.4,6.3,14.1,9.5c4.3,2.9,8.5,5.9,13,8.5c4.4,2.5,9.2,4.5,14.3,5.1
				c4.9,0.5,9.7-0.9,13.9-3.5c4.4-2.7,8.3-6.1,12.3-9.2c4.1-3.2,8.3-6.4,12.4-9.6c7.6-6,15.3-13.1,17.5-23c0.7-3.1-4.1-4.5-4.8-1.3
				c-1.7,8-7.8,13.9-13.9,18.9c-3.6,3-7.3,5.8-11,8.6c-3.9,3-7.7,6.1-11.6,9c-3.5,2.6-7.3,4.9-11.8,5.2c-4.5,0.2-8.8-1.3-12.8-3.4
				c-4.3-2.2-8.3-5-12.3-7.7c-4.4-3-8.8-5.9-13.2-8.9c-7.9-5.3-17.3-10.5-21.9-19.3C12.7,16.7,8.4,19.2,9.9,22.1L9.9,22.1z"/>
		</g>
	</g>
	<g>
		<path class="st1" d="M15.9,79c3.8-0.4,6.9-3.4,9.6-6.1c7.4-7.2,15.3-14,23.5-20.3"/>
		<g>
			<path d="M16.6,81.4c3.3-0.5,6.1-2.4,8.5-4.6c2.7-2.4,5.2-5.1,7.9-7.5c5.6-5.1,11.4-10,17.4-14.5c1.1-0.8,1.6-2.2,0.9-3.4
				c-0.6-1.1-2.3-1.7-3.4-0.9c-6,4.5-11.8,9.3-17.4,14.4c-2.7,2.4-5.2,4.9-7.8,7.4c-2.1,2-4.4,3.9-7.4,4.4c-1.3,0.2-2.1,1.9-1.7,3.1
				C13.9,81.1,15.2,81.6,16.6,81.4L16.6,81.4z"/>
		</g>
	</g>
	<g>
		<path class="st1" d="M91.2,58.4c10.2,6.9,20.5,13.6,30.9,20.2"/>
		<g>
			<path d="M89.9,60.6c10.2,6.9,20.5,13.6,30.9,20.2c2.7,1.7,5.2-2.6,2.5-4.3c-10.4-6.6-20.7-13.3-30.9-20.2
				C89.8,54.5,87.3,58.8,89.9,60.6L89.9,60.6z"/>
		</g>
	</g>
</g>
</svg>
