<?xml version="1.0" encoding="utf-8"?>
<!-- Generator: Adobe Illustrator 24.2.1, SVG Export Plug-In . SVG Version: 6.00 Build 0)  -->
<svg version="1.1" id="Layer_1" xmlns="http://www.w3.org/2000/svg" xmlns:xlink="http://www.w3.org/1999/xlink" x="0px" y="0px"
	 viewBox="0 0 138.5 134.9" style="enable-background:new 0 0 138.5 134.9;" xml:space="preserve">
<style type="text/css">
	.st0{fill:#DAE121;}
	.st1{fill:#E3E0DD;}
</style>
<path class="st0" d="M38.4,15.1C31.5,22,24.6,28.9,17.7,35.8c-4.9,4.9-9.9,10-12.4,16.5C3.2,57.9,3.1,64,3,69.9
	c-0.2,16.2-0.3,32.3-0.5,48.5c0,1.7,0,3.5,0.8,4.9c1.1,1.9,3.4,2.8,5.5,3.4c13.9,4.3,28.6,5.2,43.1,5.5c23.3,0.5,46.7-0.4,69.9-2.7
	c2.8-0.3,5.7-0.6,7.8-2.3c3.1-2.5,3.7-6.9,4-10.9c0.4-4.3,0.7-8.5,1.1-12.8c0.9-10.7,1.8-21.4,0.7-32.1
	c-1.2-10.7-4.5-21.3-11.4-29.6c-9.5-11.5-24.4-17.1-35.6-27.1c-3.2-2.9-6.1-6.2-9.8-8.5c-6.2-3.9-14-4.6-21.1-2.8
	S44.2,9.3,38.9,14.3"/>
<g>
	<path class="st0" d="M36.6,13.4c-5.7,5.7-11.4,11.4-17.1,17.2c-5,5-10.4,9.9-14.1,16.1c-4,6.6-4.7,14-4.8,21.5
		c-0.1,8.1-0.2,16.2-0.3,24.3C0.2,100.7,0.1,108.8,0,117c0,3.9,0.1,7.7,3.5,10.2c2.7,2,6.5,2.7,9.7,3.5c15.2,3.8,31.1,4.2,46.7,4.3
		c16.2,0.1,32.4-0.4,48.6-1.6c4-0.3,7.9-0.6,11.9-1c3.5-0.3,7.3-0.5,10.3-2.6c5.9-4.1,5.5-12.4,6-18.7c1.3-15.5,3.3-31.4,0.2-46.9
		c-1.4-6.8-3.8-13.5-7.6-19.4c-3.6-5.7-8.5-10.2-13.9-14.2c-5.2-3.8-10.8-7.1-16.1-10.7c-2.7-1.8-5.3-3.7-7.7-5.7
		C89,12,86.7,9.5,84.1,7.3C78.5,2.4,71.8-0.1,64.6,0c-6.9,0.1-13.7,2.5-19.5,6.3c-2.8,1.8-5.5,4-8,6.3c-2.3,2.2,1.2,5.7,3.5,3.5
		C49.5,7.7,63,1.4,74.9,7c5.8,2.7,9.9,8.1,14.8,12s10.3,7.2,15.5,10.6c5,3.2,9.9,6.6,14.1,10.8c4.5,4.5,7.9,10,10.1,16
		c5,13.7,4.3,28.4,3.2,42.7c-0.3,3.8-0.6,7.6-1,11.3c-0.3,3.3-0.3,6.8-1.1,10c-0.5,2.4-1.6,4.7-4,5.7c-3,1.2-6.6,1.1-9.7,1.4
		c-15.3,1.4-30.7,2.1-46.1,2.3c-15,0.2-30.3,0.3-45.1-1.9c-3.6-0.5-7.1-1.2-10.7-2.1c-1.7-0.4-3.4-0.9-5-1.4
		c-1.2-0.4-2.6-0.8-3.7-1.6c-1-0.8-1.2-2-1.3-3.2c-0.1-2,0-4,0-6c0-3.9,0.1-7.8,0.1-11.7c0.1-7.7,0.2-15.3,0.2-23
		c0-3.9,0.1-7.8,0.1-11.8c0.1-3.4,0.2-6.9,1-10.3c1.5-6.5,5.5-11.6,10-16.3c5.1-5.3,10.4-10.4,15.5-15.6c2.7-2.7,5.4-5.4,8-8.1
		C42.4,14.6,38.9,11.1,36.6,13.4L36.6,13.4z"/>
</g>
<g>
	<path class="st1" d="M10.3,65.3c-0.7,14.4-0.9,28.8-0.4,43.2c0.1,3.3,0.3,6.8,2.2,9.5c3.2,4.6,9.7,5.2,15.3,5.2
		c24.8,0.3,49.6,0.7,74.4,1c4.6,0.1,9.3,0.1,13.6-1.2c4.4-1.3,8.5-4.3,10-8.7c0.9-2.6,0.8-5.4,0.7-8.2c-0.6-14.1-1.2-28.3-1.7-42.4
		c-0.1-2.1-0.2-4.2-1-6.1c-0.9-2-2.4-3.5-4-5c-6.2-6-12.3-12-18.5-18c-7.4-7.2-15-14.5-24.1-19.4c-4.4-2.4-9.4-4.2-14.4-3.7
		c-8.4,0.9-14.6,7.8-20.3,14C36.6,31.4,30.9,37,24.9,42.3c-3.6,3.2-7.4,6.3-10.4,10.1S9.4,61.1,9.6,66"/>
	<g>
		<path d="M7.8,65.3C7.1,79.6,7,93.8,7.4,108.1c0.1,3,0.2,6.1,1.3,8.9c1.1,2.6,2.9,4.8,5.4,6.2c4.9,2.8,10.9,2.6,16.3,2.7
			c14.2,0.2,28.3,0.4,42.5,0.6c7.2,0.1,14.3,0.2,21.5,0.3c6.6,0.1,13.5,0.7,20-0.7c5.6-1.3,11-4.7,13.3-10.2c1.2-3,1.2-6.3,1-9.5
			c-0.1-3.7-0.3-7.3-0.5-11c-0.3-7-0.6-14-0.9-21c-0.1-3.6-0.3-7.3-0.4-10.9c-0.1-3.2-0.6-6.4-2.6-9c-1.9-2.6-4.4-4.7-6.7-6.9
			c-2.6-2.5-5.2-5.1-7.8-7.6c-4.7-4.5-9.3-9.1-14.1-13.6c-4.6-4.3-9.6-8.3-15-11.6C75.3,11.6,69,8.7,62.6,9.2
			c-12,1.1-19.7,12.3-27.5,20.2c-4.6,4.7-9.4,9.1-14.4,13.4c-4.7,4.1-9.4,8.5-11.9,14.3C7.7,59.9,7,62.9,7.1,66c0.1,3.2,5.1,3.2,5,0
			c-0.1-5.7,3-10.6,6.8-14.6c4.2-4.4,9-8.1,13.4-12.2c4.5-4.2,8.8-8.6,13-13.1c3.5-3.7,7.1-7.6,11.6-10c10.4-5.5,21.9,2.5,29.8,9
			c4.5,3.7,8.7,7.8,13,11.9c4.9,4.7,9.7,9.4,14.6,14.2c2.1,2,4.5,3.9,6.2,6.2c1.7,2.4,1.6,5.3,1.7,8.1c0.3,6.7,0.5,13.3,0.8,20
			s0.6,13.5,0.8,20.2c0.1,2.9,0.4,6-0.7,8.7c-0.9,2.1-2.7,3.8-4.6,4.9c-4.9,3-10.9,2.8-16.5,2.7c-6.7-0.1-13.5-0.2-20.2-0.3
			c-13.4-0.2-26.8-0.4-40.2-0.6c-6.1-0.1-12.3,0.2-18.3-0.4c-4.5-0.4-8.9-1.9-10.1-6.7c-0.7-2.8-0.6-5.9-0.7-8.8
			c-0.1-3.3-0.1-6.6-0.2-9.9c0-6.6,0-13.3,0.2-19.9c0.1-3.3,0.2-6.6,0.4-9.9C13,62.1,8,62.1,7.8,65.3L7.8,65.3z"/>
	</g>
</g>
<g>
	<path class="st1" d="M15,55.7C27.6,70.2,40.6,85,57.6,94.1c3.2,1.7,6.8,3.2,10.4,2.6c1.8-0.3,3.4-1.1,5-1.9
		c17.8-9.4,33.3-23.3,44.4-40.1"/>
	<g>
		<path d="M13.3,57.5C25.1,71,37.2,84.8,52.7,94.2c4.1,2.4,8.7,5.1,13.5,5.2c4.7,0,9.1-2.9,13.1-5.2c7.6-4.4,14.7-9.7,21.1-15.7
			c7.3-6.7,13.7-14.3,19.2-22.5c1.8-2.7-2.5-5.2-4.3-2.5C106.1,67.2,94,79,80,87.9C78.2,89,76.5,90,74.7,91s-3.6,2.1-5.6,2.8
			c-4.3,1.5-8.6-0.9-12.2-3c-7.4-4.2-14.1-9.6-20.2-15.5c-7-6.7-13.4-14.1-19.8-21.4c-0.9-1-2.6-0.9-3.5,0
			C12.3,55,12.4,56.5,13.3,57.5L13.3,57.5z"/>
	</g>
</g>
<g>
	<path class="st1" d="M15.3,117c5.4-1.7,10.2-5,14.5-8.8s8.1-8,12.2-12"/>
	<g>
		<path d="M16,119.5c11.5-3.8,19.5-13.1,27.8-21.4c2.3-2.3-1.3-5.8-3.5-3.5c-7.6,7.6-15,16.7-25.6,20.2
			C11.6,115.6,12.9,120.5,16,119.5L16,119.5z"/>
	</g>
</g>
<g>
	<path class="st1" d="M117.9,118.1c-10-6-20.2-12.2-27.3-21.4"/>
	<g>
		<path d="M119.1,115.9c-9.8-5.9-19.7-11.9-26.8-21c-0.8-1.1-2.7-0.9-3.5,0c-1.1,1.1-0.8,2.5,0,3.5c7.3,9.4,17.7,15.7,27.8,21.8
			C119.4,121.9,121.9,117.5,119.1,115.9L119.1,115.9z"/>
	</g>
</g>
</svg>
