<?xml version="1.0" encoding="utf-8"?>
<!-- Generator: Adobe Illustrator 24.2.1, SVG Export Plug-In . SVG Version: 6.00 Build 0)  -->
<svg version="1.1" id="Layer_1" xmlns="http://www.w3.org/2000/svg" xmlns:xlink="http://www.w3.org/1999/xlink" x="0px" y="0px"
	 viewBox="0 0 11.3 8.7" style="enable-background:new 0 0 11.3 8.7;" xml:space="preserve">
<style type="text/css">
	.st0{fill:#DCD3AA;}
	.st1{fill:#0A71B3;}
</style>
<polygon class="st0" points="0.9,2.3 0.9,2.3 0.9,2.3 "/>
<path class="st1" d="M11.3,4.9c0,1-0.5,2.1-1,2.6c-0.5,0.5-1.5,1.2-3,1.1c0,0-4,0-5.4,0c-1,0-0.9-1,0-1c1.9,0,5.3-0.1,5.3-0.1
	C8.6,7.5,10,7,10,4.9c0-1.7-1.1-2.6-2.7-2.7L3,2.3v1c0,0.1-0.1,0.2-0.2,0.1L0.9,2.3v0h0L0.1,1.8C0,1.8,0,1.6,0.1,1.6L2.7,0
	C2.8,0,3,0,3,0.2v1.1h4.6C10,1.2,11.3,2.9,11.3,4.9z"/>
<polygon class="st1" points="0.9,2.3 0.9,2.3 0.9,2.3 "/>
</svg>
